<svg width="1600" height="1200" viewBox="0 0 1600 1200" fill="none" xmlns="http://www.w3.org/2000/svg">
<rect width="1600" height="1200" fill="black"/>
<g clip-path="url(#clip0_36_2)">
<g clip-path="url(#clip1_36_2)">
<path d="M630.508 302H376.222V394.565H595.755L850.041 672.26H1223.84V579.695H884.794L630.508 302Z" fill="white"/>
<path d="M1223.84 302H800.031V394.565H1223.84V302Z" fill="white"/>
</g>
</g>
<path d="M243.455 771.507L262.545 837.143H263.273L282.364 771.507H310.909L280.182 864.598H245.636L214.909 771.507H243.455ZM345 865.87C337.424 865.87 330.939 864.37 325.545 861.37C320.152 858.34 316.015 854.128 313.136 848.734C310.258 843.31 308.818 837.022 308.818 829.87C308.818 822.719 310.258 816.446 313.136 811.052C316.015 805.628 320.152 801.416 325.545 798.416C330.939 795.386 337.424 793.87 345 793.87C352.576 793.87 359.061 795.386 364.455 798.416C369.848 801.416 373.985 805.628 376.864 811.052C379.742 816.446 381.182 822.719 381.182 829.87C381.182 837.022 379.742 843.31 376.864 848.734C373.985 854.128 369.848 858.34 364.455 861.37C359.061 864.37 352.576 865.87 345 865.87ZM345.182 847.325C347.303 847.325 349.136 846.613 350.682 845.189C352.227 843.764 353.424 841.734 354.273 839.098C355.121 836.461 355.545 833.325 355.545 829.689C355.545 826.022 355.121 822.886 354.273 820.279C353.424 817.643 352.227 815.613 350.682 814.189C349.136 812.764 347.303 812.052 345.182 812.052C342.939 812.052 341.015 812.764 339.409 814.189C337.803 815.613 336.576 817.643 335.727 820.279C334.879 822.886 334.455 826.022 334.455 829.689C334.455 833.325 334.879 836.461 335.727 839.098C336.576 841.734 337.803 843.764 339.409 845.189C341.015 846.613 342.939 847.325 345.182 847.325ZM425 865.87C417.424 865.87 410.939 864.37 405.545 861.37C400.152 858.34 396.015 854.128 393.136 848.734C390.258 843.31 388.818 837.022 388.818 829.87C388.818 822.719 390.258 816.446 393.136 811.052C396.015 805.628 400.152 801.416 405.545 798.416C410.939 795.386 417.424 793.87 425 793.87C431.848 793.87 437.773 795.113 442.773 797.598C447.803 800.052 451.697 803.537 454.455 808.052C457.212 812.537 458.606 817.81 458.636 823.87H435.364C435.03 820.204 433.97 817.416 432.182 815.507C430.424 813.567 428.152 812.598 425.364 812.598C423.182 812.598 421.273 813.234 419.636 814.507C418 815.749 416.727 817.643 415.818 820.189C414.909 822.704 414.455 825.87 414.455 829.689C414.455 833.507 414.909 836.689 415.818 839.234C416.727 841.749 418 843.643 419.636 844.916C421.273 846.158 423.182 846.779 425.364 846.779C427.212 846.779 428.848 846.355 430.273 845.507C431.697 844.628 432.848 843.355 433.727 841.689C434.636 839.992 435.182 837.931 435.364 835.507H458.636C458.545 841.658 457.136 847.022 454.409 851.598C451.682 856.143 447.818 859.658 442.818 862.143C437.848 864.628 431.909 865.87 425 865.87ZM488.443 865.689C483.989 865.689 480.049 864.961 476.625 863.507C473.231 862.022 470.564 859.779 468.625 856.779C466.686 853.779 465.716 849.961 465.716 845.325C465.716 841.507 466.367 838.249 467.67 835.552C468.973 832.825 470.792 830.598 473.125 828.87C475.458 827.143 478.17 825.825 481.261 824.916C484.383 824.007 487.746 823.416 491.352 823.143C495.261 822.84 498.398 822.476 500.761 822.052C503.155 821.598 504.883 820.976 505.943 820.189C507.004 819.37 507.534 818.295 507.534 816.961V816.779C507.534 814.961 506.837 813.567 505.443 812.598C504.049 811.628 502.261 811.143 500.08 811.143C497.686 811.143 495.731 811.673 494.216 812.734C492.731 813.764 491.837 815.355 491.534 817.507H468.443C468.746 813.264 470.095 809.355 472.489 805.779C474.913 802.173 478.443 799.295 483.08 797.143C487.716 794.961 493.504 793.87 500.443 793.87C505.443 793.87 509.928 794.461 513.898 795.643C517.867 796.795 521.246 798.416 524.034 800.507C526.822 802.567 528.943 804.992 530.398 807.779C531.883 810.537 532.625 813.537 532.625 816.779V864.598H509.17V854.779H508.625C507.231 857.386 505.534 859.492 503.534 861.098C501.564 862.704 499.307 863.87 496.761 864.598C494.246 865.325 491.473 865.689 488.443 865.689ZM496.625 849.87C498.534 849.87 500.322 849.476 501.989 848.689C503.686 847.901 505.064 846.764 506.125 845.279C507.186 843.795 507.716 841.992 507.716 839.87V834.052C507.049 834.325 506.337 834.583 505.58 834.825C504.852 835.067 504.064 835.295 503.216 835.507C502.398 835.719 501.519 835.916 500.58 836.098C499.67 836.279 498.716 836.446 497.716 836.598C495.777 836.901 494.186 837.401 492.943 838.098C491.731 838.764 490.822 839.598 490.216 840.598C489.64 841.567 489.352 842.658 489.352 843.87C489.352 845.81 490.034 847.295 491.398 848.325C492.761 849.355 494.504 849.87 496.625 849.87ZM544.614 864.598V794.779H568.977V808.052H569.705C570.977 803.143 572.992 799.552 575.75 797.279C578.538 795.007 581.795 793.87 585.523 793.87C586.614 793.87 587.689 793.961 588.75 794.143C589.841 794.295 590.886 794.522 591.886 794.825V816.234C590.644 815.81 589.114 815.492 587.295 815.279C585.477 815.067 583.917 814.961 582.614 814.961C580.159 814.961 577.947 815.522 575.977 816.643C574.038 817.734 572.508 819.279 571.386 821.279C570.265 823.249 569.705 825.567 569.705 828.234V864.598H544.614ZM616.318 865.689C611.864 865.689 607.924 864.961 604.5 863.507C601.106 862.022 598.439 859.779 596.5 856.779C594.561 853.779 593.591 849.961 593.591 845.325C593.591 841.507 594.242 838.249 595.545 835.552C596.848 832.825 598.667 830.598 601 828.87C603.333 827.143 606.045 825.825 609.136 824.916C612.258 824.007 615.621 823.416 619.227 823.143C623.136 822.84 626.273 822.476 628.636 822.052C631.03 821.598 632.758 820.976 633.818 820.189C634.879 819.37 635.409 818.295 635.409 816.961V816.779C635.409 814.961 634.712 813.567 633.318 812.598C631.924 811.628 630.136 811.143 627.955 811.143C625.561 811.143 623.606 811.673 622.091 812.734C620.606 813.764 619.712 815.355 619.409 817.507H596.318C596.621 813.264 597.97 809.355 600.364 805.779C602.788 802.173 606.318 799.295 610.955 797.143C615.591 794.961 621.379 793.87 628.318 793.87C633.318 793.87 637.803 794.461 641.773 795.643C645.742 796.795 649.121 798.416 651.909 800.507C654.697 802.567 656.818 804.992 658.273 807.779C659.758 810.537 660.5 813.537 660.5 816.779V864.598H637.045V854.779H636.5C635.106 857.386 633.409 859.492 631.409 861.098C629.439 862.704 627.182 863.87 624.636 864.598C622.121 865.325 619.348 865.689 616.318 865.689ZM624.5 849.87C626.409 849.87 628.197 849.476 629.864 848.689C631.561 847.901 632.939 846.764 634 845.279C635.061 843.795 635.591 841.992 635.591 839.87V834.052C634.924 834.325 634.212 834.583 633.455 834.825C632.727 835.067 631.939 835.295 631.091 835.507C630.273 835.719 629.394 835.916 628.455 836.098C627.545 836.279 626.591 836.446 625.591 836.598C623.652 836.901 622.061 837.401 620.818 838.098C619.606 838.764 618.697 839.598 618.091 840.598C617.515 841.567 617.227 842.658 617.227 843.87C617.227 845.81 617.909 847.295 619.273 848.325C620.636 849.355 622.379 849.87 624.5 849.87ZM733.443 864.598H697.625V771.507H733.08C742.655 771.507 750.928 773.37 757.898 777.098C764.898 780.795 770.292 786.128 774.08 793.098C777.898 800.037 779.807 808.355 779.807 818.052C779.807 827.749 777.913 836.083 774.125 843.052C770.337 849.992 764.973 855.325 758.034 859.052C751.095 862.749 742.898 864.598 733.443 864.598ZM722.898 843.143H732.534C737.14 843.143 741.064 842.401 744.307 840.916C747.58 839.431 750.064 836.87 751.761 833.234C753.489 829.598 754.352 824.537 754.352 818.052C754.352 811.567 753.473 806.507 751.716 802.87C749.989 799.234 747.443 796.673 744.08 795.189C740.746 793.704 736.655 792.961 731.807 792.961H722.898V843.143ZM791.864 864.598V794.779H816.955V864.598H791.864ZM804.409 787.507C801.015 787.507 798.106 786.386 795.682 784.143C793.258 781.901 792.045 779.204 792.045 776.052C792.045 772.901 793.258 770.204 795.682 767.961C798.106 765.719 801.015 764.598 804.409 764.598C807.833 764.598 810.742 765.719 813.136 767.961C815.561 770.204 816.773 772.901 816.773 776.052C816.773 779.204 815.561 781.901 813.136 784.143C810.742 786.386 807.833 787.507 804.409 787.507ZM863.375 865.87C855.799 865.87 849.314 864.37 843.92 861.37C838.527 858.34 834.39 854.128 831.511 848.734C828.633 843.31 827.193 837.022 827.193 829.87C827.193 822.719 828.633 816.446 831.511 811.052C834.39 805.628 838.527 801.416 843.92 798.416C849.314 795.386 855.799 793.87 863.375 793.87C870.223 793.87 876.148 795.113 881.148 797.598C886.178 800.052 890.072 803.537 892.83 808.052C895.587 812.537 896.981 817.81 897.011 823.87H873.739C873.405 820.204 872.345 817.416 870.557 815.507C868.799 813.567 866.527 812.598 863.739 812.598C861.557 812.598 859.648 813.234 858.011 814.507C856.375 815.749 855.102 817.643 854.193 820.189C853.284 822.704 852.83 825.87 852.83 829.689C852.83 833.507 853.284 836.689 854.193 839.234C855.102 841.749 856.375 843.643 858.011 844.916C859.648 846.158 861.557 846.779 863.739 846.779C865.587 846.779 867.223 846.355 868.648 845.507C870.072 844.628 871.223 843.355 872.102 841.689C873.011 839.992 873.557 837.931 873.739 835.507H897.011C896.92 841.658 895.511 847.022 892.784 851.598C890.057 856.143 886.193 859.658 881.193 862.143C876.223 864.628 870.284 865.87 863.375 865.87ZM949 794.779V812.961H903V794.779H949ZM911.909 778.052H937V842.143C937 843.113 937.167 843.931 937.5 844.598C937.833 845.234 938.348 845.719 939.045 846.052C939.742 846.355 940.636 846.507 941.727 846.507C942.485 846.507 943.364 846.416 944.364 846.234C945.394 846.052 946.152 845.901 946.636 845.779L950.273 863.416C949.152 863.749 947.545 864.158 945.455 864.643C943.394 865.128 940.939 865.446 938.091 865.598C932.333 865.901 927.5 865.31 923.591 863.825C919.682 862.31 916.742 859.931 914.773 856.689C912.803 853.446 911.848 849.386 911.909 844.507V778.052ZM959.239 864.598V794.779H984.33V864.598H959.239ZM971.784 787.507C968.39 787.507 965.481 786.386 963.057 784.143C960.633 781.901 959.42 779.204 959.42 776.052C959.42 772.901 960.633 770.204 963.057 767.961C965.481 765.719 968.39 764.598 971.784 764.598C975.208 764.598 978.117 765.719 980.511 767.961C982.936 770.204 984.148 772.901 984.148 776.052C984.148 779.204 982.936 781.901 980.511 784.143C978.117 786.386 975.208 787.507 971.784 787.507ZM1030.75 865.87C1023.17 865.87 1016.69 864.37 1011.3 861.37C1005.9 858.34 1001.77 854.128 998.886 848.734C996.008 843.31 994.568 837.022 994.568 829.87C994.568 822.719 996.008 816.446 998.886 811.052C1001.77 805.628 1005.9 801.416 1011.3 798.416C1016.69 795.386 1023.17 793.87 1030.75 793.87C1038.33 793.87 1044.81 795.386 1050.2 798.416C1055.6 801.416 1059.73 805.628 1062.61 811.052C1065.49 816.446 1066.93 822.719 1066.93 829.87C1066.93 837.022 1065.49 843.31 1062.61 848.734C1059.73 854.128 1055.6 858.34 1050.2 861.37C1044.81 864.37 1038.33 865.87 1030.75 865.87ZM1030.93 847.325C1033.05 847.325 1034.89 846.613 1036.43 845.189C1037.98 843.764 1039.17 841.734 1040.02 839.098C1040.87 836.461 1041.3 833.325 1041.3 829.689C1041.3 826.022 1040.87 822.886 1040.02 820.279C1039.17 817.643 1037.98 815.613 1036.43 814.189C1034.89 812.764 1033.05 812.052 1030.93 812.052C1028.69 812.052 1026.77 812.764 1025.16 814.189C1023.55 815.613 1022.33 817.643 1021.48 820.279C1020.63 822.886 1020.2 826.022 1020.2 829.689C1020.2 833.325 1020.63 836.461 1021.48 839.098C1022.33 841.734 1023.55 843.764 1025.16 845.189C1026.77 846.613 1028.69 847.325 1030.93 847.325ZM1102.2 825.325V864.598H1077.11V794.779H1100.93V808.052H1101.66C1103.17 803.628 1105.84 800.158 1109.66 797.643C1113.51 795.128 1117.99 793.87 1123.11 793.87C1128.05 793.87 1132.34 795.007 1135.98 797.279C1139.64 799.522 1142.48 802.613 1144.48 806.552C1146.51 810.492 1147.51 814.992 1147.48 820.052V864.598H1122.39V825.325C1122.42 821.87 1121.54 819.158 1119.75 817.189C1117.99 815.219 1115.54 814.234 1112.39 814.234C1110.33 814.234 1108.52 814.689 1106.98 815.598C1105.46 816.476 1104.3 817.749 1103.48 819.416C1102.66 821.052 1102.23 823.022 1102.2 825.325ZM1179.32 865.689C1174.86 865.689 1170.92 864.961 1167.5 863.507C1164.11 862.022 1161.44 859.779 1159.5 856.779C1157.56 853.779 1156.59 849.961 1156.59 845.325C1156.59 841.507 1157.24 838.249 1158.55 835.552C1159.85 832.825 1161.67 830.598 1164 828.87C1166.33 827.143 1169.05 825.825 1172.14 824.916C1175.26 824.007 1178.62 823.416 1182.23 823.143C1186.14 822.84 1189.27 822.476 1191.64 822.052C1194.03 821.598 1195.76 820.976 1196.82 820.189C1197.88 819.37 1198.41 818.295 1198.41 816.961V816.779C1198.41 814.961 1197.71 813.567 1196.32 812.598C1194.92 811.628 1193.14 811.143 1190.95 811.143C1188.56 811.143 1186.61 811.673 1185.09 812.734C1183.61 813.764 1182.71 815.355 1182.41 817.507H1159.32C1159.62 813.264 1160.97 809.355 1163.36 805.779C1165.79 802.173 1169.32 799.295 1173.95 797.143C1178.59 794.961 1184.38 793.87 1191.32 793.87C1196.32 793.87 1200.8 794.461 1204.77 795.643C1208.74 796.795 1212.12 798.416 1214.91 800.507C1217.7 802.567 1219.82 804.992 1221.27 807.779C1222.76 810.537 1223.5 813.537 1223.5 816.779V864.598H1200.05V854.779H1199.5C1198.11 857.386 1196.41 859.492 1194.41 861.098C1192.44 862.704 1190.18 863.87 1187.64 864.598C1185.12 865.325 1182.35 865.689 1179.32 865.689ZM1187.5 849.87C1189.41 849.87 1191.2 849.476 1192.86 848.689C1194.56 847.901 1195.94 846.764 1197 845.279C1198.06 843.795 1198.59 841.992 1198.59 839.87V834.052C1197.92 834.325 1197.21 834.583 1196.45 834.825C1195.73 835.067 1194.94 835.295 1194.09 835.507C1193.27 835.719 1192.39 835.916 1191.45 836.098C1190.55 836.279 1189.59 836.446 1188.59 836.598C1186.65 836.901 1185.06 837.401 1183.82 838.098C1182.61 838.764 1181.7 839.598 1181.09 840.598C1180.52 841.567 1180.23 842.658 1180.23 843.87C1180.23 845.81 1180.91 847.295 1182.27 848.325C1183.64 849.355 1185.38 849.87 1187.5 849.87ZM1235.49 864.598V794.779H1259.85V808.052H1260.58C1261.85 803.143 1263.87 799.552 1266.62 797.279C1269.41 795.007 1272.67 793.87 1276.4 793.87C1277.49 793.87 1278.56 793.961 1279.62 794.143C1280.72 794.295 1281.76 794.522 1282.76 794.825V816.234C1281.52 815.81 1279.99 815.492 1278.17 815.279C1276.35 815.067 1274.79 814.961 1273.49 814.961C1271.03 814.961 1268.82 815.522 1266.85 816.643C1264.91 817.734 1263.38 819.279 1262.26 821.279C1261.14 823.249 1260.58 825.567 1260.58 828.234V864.598H1235.49ZM1308.39 890.779C1305.51 890.779 1302.77 890.552 1300.16 890.098C1297.55 889.673 1295.27 889.083 1293.3 888.325L1298.75 870.507C1300.81 871.234 1302.69 871.704 1304.39 871.916C1306.11 872.128 1307.58 872.007 1308.8 871.552C1310.04 871.098 1310.93 870.234 1311.48 868.961L1312.02 867.689L1287.48 794.779H1313.66L1324.93 843.143H1325.66L1337.11 794.779H1363.48L1338.02 870.416C1336.75 874.264 1334.9 877.719 1332.48 880.779C1330.08 883.87 1326.93 886.31 1323.02 888.098C1319.11 889.886 1314.23 890.779 1308.39 890.779Z" fill="white"/>
<defs>
<clipPath id="clip0_36_2">
<rect width="847.62" height="370.26" fill="white" transform="translate(376.222 302)"/>
</clipPath>
<clipPath id="clip1_36_2">
<rect width="847.62" height="370.26" fill="white" transform="translate(376.222 302)"/>
</clipPath>
</defs>
</svg>
