<svg xmlns="http://www.w3.org/2000/svg" version="1.1" xmlns:xlink="http://www.w3.org/1999/xlink" width="2000" height="1500" viewBox="0 0 2000 1500"><rect width="2000" height="1500" fill="#000000"></rect><g transform="matrix(0.75,0,0,0.75,249.090909090909,443.7417534602358)"><svg viewBox="0 0 396 161" data-background-color="#ffffff" preserveAspectRatio="xMidYMid meet" height="813" width="2000" xmlns="http://www.w3.org/2000/svg" xmlns:xlink="http://www.w3.org/1999/xlink"><g id="tight-bounds" transform="matrix(1,0,0,1,0.2400000000000091,0.3652360687200087)"><svg viewBox="0 0 395.52 160.26952786255998" height="160.26952786255998" width="395.52"><g><svg viewBox="0 0 395.52 160.26952786255998" height="160.26952786255998" width="395.52"><g transform="matrix(1,0,0,1,0,99.05299791363566)"><svg viewBox="0 0 395.52 61.21652994892431" height="61.21652994892431" width="395.52"><g id="textblocktransform"><svg viewBox="0 0 395.52 61.21652994892431" height="61.21652994892431" width="395.52" id="textblock"><g><svg viewBox="0 0 395.52 61.21652994892431" height="61.21652994892431" width="395.52"><g transform="matrix(1,0,0,1,0,0)"><svg width="395.52" viewBox="0.95 -37.9 321.22 50" height="61.21652994892431" data-palette-color="#000000"><g class="wordmark-text-0" data-fill-palette-color="primary" id="text-0"><path d="M0.95 0L12.65-34.1 17.85-34.1 29.55 0 25.2 0 22.2-9.1 8.35-9.1 5.3 0 0.95 0ZM9.65-13.1L20.85-13.1 15.35-30.1 15.2-30.1 9.65-13.1ZM34.1 0L34.1-37.45 38.1-37.9 38.1 0 34.1 0ZM47.15-32.15L51.15-32.65 51.15-25.15 58.39-25.15 58.39-21.9 51.15-21.9 51.15-8.55Q51.15-6.9 51.22-5.8 51.3-4.7 51.55-4.05 51.8-3.4 52.25-3.13 52.7-2.85 53.4-2.85L53.4-2.85Q55.3-2.9 57.8-4.25L57.8-4.25 59-1.2Q57.34-0.1 55.92 0.28 54.5 0.65 53.09 0.65L53.09 0.65Q49.8 0.65 48.47-1.23 47.15-3.1 47.15-7.45L47.15-7.45 47.15-21.9 42.55-21.9 42.55-25.15 47.15-25.15 47.15-32.15ZM63.49 0L63.49-25.2 67.49-25.65 67.49 0 63.49 0ZM62.84-32.35L62.84-32.35Q62.84-33.5 63.62-34.27 64.39-35.05 65.54-35.05L65.54-35.05Q66.74-35.05 67.57-34.27 68.39-33.5 68.39-32.35L68.39-32.35Q68.39-31.2 67.57-30.43 66.74-29.65 65.54-29.65L65.54-29.65Q64.39-29.65 63.62-30.43 62.84-31.2 62.84-32.35ZM88.99-24.6L88.29-21.05Q86.19-21.7 84.56-21.93 82.94-22.15 81.59-22.15L81.59-22.15Q79.84-22.15 78.67-21.3 77.49-20.45 77.49-19.1L77.49-19.1Q77.54-17.9 78.54-17.05 79.54-16.2 80.87-15.53 82.19-14.85 83.81-14.05 85.44-13.25 86.87-12.25 88.29-11.25 89.19-9.85 90.09-8.45 90.14-6.5L90.14-6.5Q90.09-4.4 89.22-3.03 88.34-1.65 86.97-0.83 85.59 0 83.99 0.33 82.39 0.65 80.99 0.65L80.99 0.65Q79.19 0.65 77.27 0.45 75.34 0.25 73.14-0.4L73.14-0.4 73.89-4Q76.14-3.4 77.99-3.13 79.84-2.85 81.04-2.85L81.04-2.85Q81.94-2.85 82.81-3.05 83.69-3.25 84.39-3.63 85.09-4 85.52-4.6 85.94-5.2 85.94-5.95L85.94-5.95Q85.89-7.35 84.99-8.33 84.09-9.3 82.67-10.08 81.24-10.85 79.62-11.63 77.99-12.4 76.56-13.43 75.14-14.45 74.19-15.88 73.24-17.3 73.24-19.4L73.24-19.4Q73.24-20.9 74.02-22.08 74.79-23.25 76.02-24.03 77.24-24.8 78.72-25.23 80.19-25.65 81.59-25.65L81.59-25.65Q83.04-25.65 84.84-25.43 86.64-25.2 88.99-24.6L88.99-24.6Z" fill="#ffffff" data-fill-palette-color="primary"></path><path d="M110.19-30.25L110.19-3.85 116.94-3.85Q119.69-3.85 122.11-4.55 124.54-5.25 126.36-6.83 128.19-8.4 129.24-10.95 130.29-13.5 130.29-17.15L130.29-17.15Q130.29-20.55 129.34-23.03 128.39-25.5 126.66-27.1 124.94-28.7 122.46-29.48 119.99-30.25 116.94-30.25L116.94-30.25 110.19-30.25ZM105.99 0L105.99-34.1 116.94-34.1Q120.99-34.1 124.26-33.1 127.54-32.1 129.89-30 132.24-27.9 133.51-24.7 134.79-21.5 134.79-17.15L134.79-17.15Q134.79-12.75 133.39-9.53 131.99-6.3 129.59-4.17 127.19-2.05 123.94-1.03 120.69 0 116.94 0L116.94 0 105.99 0ZM140.94 0L140.94-25.2 144.94-25.65 144.94 0 140.94 0ZM140.29-32.35L140.29-32.35Q140.29-33.5 141.06-34.27 141.84-35.05 142.99-35.05L142.99-35.05Q144.19-35.05 145.01-34.27 145.84-33.5 145.84-32.35L145.84-32.35Q145.84-31.2 145.01-30.43 144.19-29.65 142.99-29.65L142.99-29.65Q141.84-29.65 141.06-30.43 140.29-31.2 140.29-32.35ZM168.53-24.85L167.73-21.5Q166.88-21.7 165.38-21.93 163.88-22.15 162.33-22.15L162.33-22.15Q160.08-22.15 158.66-21.25 157.23-20.35 156.43-18.93 155.63-17.5 155.33-15.78 155.03-14.05 155.03-12.4L155.03-12.4Q155.03-9.85 155.68-8.03 156.33-6.2 157.41-5.05 158.48-3.9 159.88-3.38 161.28-2.85 162.83-2.85L162.83-2.85Q163.88-2.85 164.86-2.98 165.83-3.1 166.66-3.28 167.48-3.45 168.23-3.7L168.23-3.7 169.03-0.35Q167.98-0.05 167.08 0.15 166.18 0.35 164.96 0.5 163.73 0.65 162.33 0.65L162.33 0.65Q159.58 0.65 157.43-0.05 155.28-0.75 153.81-2.3 152.33-3.85 151.56-6.35 150.78-8.85 150.78-12.45L150.78-12.45Q150.78-15.95 151.76-18.48 152.73-21 154.33-22.58 155.93-24.15 158.01-24.9 160.08-25.65 162.33-25.65L162.33-25.65Q163.53-25.65 164.66-25.53 165.78-25.4 166.63-25.25L166.63-25.25Q167.63-25.05 168.53-24.85L168.53-24.85ZM175.83-32.15L179.83-32.65 179.83-25.15 187.08-25.15 187.08-21.9 179.83-21.9 179.83-8.55Q179.83-6.9 179.91-5.8 179.98-4.7 180.23-4.05 180.48-3.4 180.93-3.13 181.38-2.85 182.08-2.85L182.08-2.85Q183.98-2.9 186.48-4.25L186.48-4.25 187.68-1.2Q186.03-0.1 184.61 0.28 183.18 0.65 181.78 0.65L181.78 0.65Q178.48 0.65 177.16-1.23 175.83-3.1 175.83-7.45L175.83-7.45 175.83-21.9 171.23-21.9 171.23-25.15 175.83-25.15 175.83-32.15ZM192.18 0L192.18-25.2 196.18-25.65 196.18 0 192.18 0ZM191.53-32.35L191.53-32.35Q191.53-33.5 192.3-34.27 193.08-35.05 194.23-35.05L194.23-35.05Q195.43-35.05 196.25-34.27 197.08-33.5 197.08-32.35L197.08-32.35Q197.08-31.2 196.25-30.43 195.43-29.65 194.23-29.65L194.23-29.65Q193.08-29.65 192.3-30.43 191.53-31.2 191.53-32.35ZM206.23-12.45L206.23-12.45Q206.23-7.6 208.4-5.23 210.58-2.85 214.28-2.85L214.28-2.85Q217.93-2.85 219.98-5.2 222.03-7.55 222.03-12.25L222.03-12.25Q222.03-17.25 219.85-19.7 217.68-22.15 213.93-22.15L213.93-22.15Q210.18-22.15 208.2-19.73 206.23-17.3 206.23-12.45ZM201.98-12.5L201.98-12.5Q201.98-16.3 203.18-18.82 204.38-21.35 206.23-22.88 208.08-24.4 210.2-25.03 212.33-25.65 214.23-25.65L214.23-25.65Q216.03-25.65 218.15-25.08 220.28-24.5 222.08-23.03 223.88-21.55 225.08-19.07 226.28-16.6 226.28-12.8L226.28-12.8Q226.28-8.85 225.05-6.25 223.83-3.65 221.98-2.13 220.13-0.6 217.98 0.03 215.83 0.65 213.98 0.65L213.98 0.65Q212.08 0.65 209.98 0.05 207.88-0.55 206.1-2.02 204.33-3.5 203.15-6.05 201.98-8.6 201.98-12.5ZM232.12 0L232.12-20.15Q232.17-21.2 231.87-24.7L231.87-24.7 235.57-25.2 236.12-22Q237.62-23 239.1-23.75 240.57-24.5 242.12-25.08 243.67-25.65 245.12-25.65L245.12-25.65Q247.17-25.65 248.55-25.18 249.92-24.7 250.77-23.6 251.62-22.5 252-20.7 252.37-18.9 252.37-16.2L252.37-16.2 252.37 0 248.37 0 248.37-15.75Q248.37-17.25 248.32-18.43 248.27-19.6 247.9-20.43 247.52-21.25 246.75-21.7 245.97-22.15 244.57-22.15L244.57-22.15Q243.27-22.15 241.82-21.58 240.37-21 238.97-20.25 237.57-19.5 236.12-18.5L236.12-18.5 236.12 0 232.12 0ZM273.42-5.85L273.42-11.55Q272.42-11.5 271.52-11.45 270.62-11.4 269.75-11.33 268.87-11.25 268.17-11.15L268.17-11.15Q264.57-10.7 263.07-9.58 261.57-8.45 261.57-6.35L261.57-6.35Q261.57-4.6 262.65-3.73 263.72-2.85 265.47-2.85L265.47-2.85Q267.87-2.85 269.75-3.68 271.62-4.5 273.42-5.85L273.42-5.85ZM273.87 0.4L273.37-2.35Q271.02-1 269-0.18 266.97 0.65 264.62 0.65L264.62 0.65Q261.27 0.65 259.3-0.98 257.32-2.6 257.32-6.35L257.32-6.35Q257.32-8.3 258.32-9.75 259.32-11.2 260.95-12.18 262.57-13.15 264.62-13.7 266.67-14.25 268.82-14.4L268.82-14.4Q269.72-14.5 271.17-14.58 272.62-14.65 273.42-14.7L273.42-14.7Q273.42-16.45 273.32-17.82 273.22-19.2 272.72-20.18 272.22-21.15 271.25-21.65 270.27-22.15 268.47-22.15L268.47-22.15Q267.02-22.15 265.67-21.98 264.32-21.8 263.27-21.6L263.27-21.6Q262.02-21.35 260.97-21.05L260.97-21.05 260.17-24.5Q261.42-24.8 262.87-25.05L262.87-25.05Q264.12-25.3 265.77-25.48 267.42-25.65 269.32-25.65L269.32-25.65Q271.87-25.65 273.45-24.9 275.02-24.15 275.9-22.88 276.77-21.6 277.1-19.98 277.42-18.35 277.42-16.55L277.42-16.55 277.42-4.55Q277.42-3.85 277.45-3.08 277.47-2.3 277.55-1.55 277.62-0.8 277.72 0L277.72 0 273.87 0.4ZM284.52 0L284.52-21.1Q284.52-22.25 284.27-24.7L284.27-24.7 287.97-25.2 288.37-21.55 288.42-21.55Q289.32-22.7 290.17-23.55 291.02-24.4 291.94-25.03 292.87-25.65 293.72-25.65L293.72-25.65Q294.87-25.7 296.92-25.4L296.92-25.4 296.02-21.55Q294.37-21.85 293.72-21.8L293.72-21.8Q292.87-21.8 291.92-21 290.97-20.2 290.27-19.3L290.27-19.3Q289.37-18.2 288.52-16.8L288.52-16.8 288.52 0 284.52 0ZM308.12-0.65L298.07-25.15 302.32-25.15 307.02-13.8Q307.72-12.15 308.29-10.5 308.87-8.85 309.32-7.55L309.32-7.55Q309.87-6 310.27-4.55L310.27-4.55 310.32-4.55Q310.77-6 311.32-7.55L311.32-7.55Q311.77-8.85 312.37-10.5 312.97-12.15 313.62-13.8L313.62-13.8 317.97-25.15 322.17-25.15 310.27 4.85Q309.57 6.7 308.44 8.05 307.32 9.4 306.27 10.3L306.27 10.3Q305.02 11.35 303.67 12.1L303.67 12.1 301.72 8.65Q302.77 8.15 303.67 7.4L303.67 7.4Q304.47 6.75 305.27 5.78 306.07 4.8 306.57 3.45L306.57 3.45 308.12-0.65Z" fill="#ffffff" data-fill-palette-color="secondary"></path></g></svg></g></svg></g></svg></g></svg></g><g transform="matrix(1,0,0,1,92.00844451323323,0)"><svg viewBox="0 0 211.50311097353352 84.60124438941341" height="84.60124438941341" width="211.50311097353352"><g><svg xmlns="http://www.w3.org/2000/svg" xmlns:xlink="http://www.w3.org/1999/xlink" version="1.1" x="0" y="0" viewBox="0 30 100 40" enable-background="new 0 0 100 100" xml:space="preserve" height="84.60124438941341" width="211.50311097353352" class="icon-icon-0" data-fill-palette-color="accent" id="icon-0"><g fill="#d2d6dc" data-fill-palette-color="accent"><polygon points="30,30 0,30 0,40 25.9,40 55.9,70 100,70 100,60 60,60  " fill="#ffffff" data-fill-palette-color="accent"></polygon><rect x="50" y="30" width="50" height="10" fill="#ffffff" data-fill-palette-color="accent"></rect></g></svg></g></svg></g><g></g></svg></g><defs></defs></svg><rect width="395.52" height="160.26952786255998" fill="none" stroke="none" visibility="hidden"></rect></g></svg></g></svg>